<mxfile host="app.diagrams.net" agent="Mozilla/5.0 (Windows NT 10.0; Win64; x64) AppleWebKit/537.36 (KHTML, like Gecko) Chrome/116.0.0.0 Safari/537.36" version="25.0.3">
  <diagram name="第 1 页" id="1Aa76YPSy4CPtxVOISLz">
    <mxGraphModel dx="1071" dy="561" grid="1" gridSize="10" guides="1" tooltips="1" connect="1" arrows="1" fold="1" page="1" pageScale="1" pageWidth="827" pageHeight="1169" math="0" shadow="0">
      <root>
        <mxCell id="0" />
        <mxCell id="1" parent="0" />
        <mxCell id="kvgdyRZ8XNl1OnzRA7-r-5" value="全局兜底【本地缓存】" style="rounded=1;whiteSpace=wrap;html=1;" vertex="1" parent="1">
          <mxGeometry x="90" y="110" width="195" height="200" as="geometry" />
        </mxCell>
        <mxCell id="kvgdyRZ8XNl1OnzRA7-r-6" value="媒体引擎兜底【分布式缓存】" style="rounded=1;whiteSpace=wrap;html=1;" vertex="1" parent="1">
          <mxGeometry x="80" y="430" width="190" height="200" as="geometry" />
        </mxCell>
        <mxCell id="kvgdyRZ8XNl1OnzRA7-r-11" value="限流【单机】" style="rounded=1;whiteSpace=wrap;html=1;" vertex="1" parent="1">
          <mxGeometry x="350" y="210" width="141" height="80" as="geometry" />
        </mxCell>
        <mxCell id="kvgdyRZ8XNl1OnzRA7-r-18" value="" style="edgeStyle=orthogonalEdgeStyle;rounded=0;orthogonalLoop=1;jettySize=auto;html=1;" edge="1" parent="1" source="kvgdyRZ8XNl1OnzRA7-r-12" target="kvgdyRZ8XNl1OnzRA7-r-17">
          <mxGeometry relative="1" as="geometry" />
        </mxCell>
        <mxCell id="kvgdyRZ8XNl1OnzRA7-r-12" value="请求开始" style="rounded=0;whiteSpace=wrap;html=1;" vertex="1" parent="1">
          <mxGeometry x="690" width="120" height="60" as="geometry" />
        </mxCell>
        <mxCell id="kvgdyRZ8XNl1OnzRA7-r-20" value="" style="edgeStyle=orthogonalEdgeStyle;rounded=0;orthogonalLoop=1;jettySize=auto;html=1;" edge="1" parent="1" source="kvgdyRZ8XNl1OnzRA7-r-17" target="kvgdyRZ8XNl1OnzRA7-r-19">
          <mxGeometry relative="1" as="geometry" />
        </mxCell>
        <mxCell id="kvgdyRZ8XNl1OnzRA7-r-21" style="edgeStyle=orthogonalEdgeStyle;rounded=0;orthogonalLoop=1;jettySize=auto;html=1;entryX=1;entryY=0.5;entryDx=0;entryDy=0;" edge="1" parent="1" source="kvgdyRZ8XNl1OnzRA7-r-17" target="kvgdyRZ8XNl1OnzRA7-r-11">
          <mxGeometry relative="1" as="geometry" />
        </mxCell>
        <mxCell id="kvgdyRZ8XNl1OnzRA7-r-17" value="本地规则刷量识别" style="whiteSpace=wrap;html=1;rounded=0;" vertex="1" parent="1">
          <mxGeometry x="690" y="140" width="120" height="60" as="geometry" />
        </mxCell>
        <mxCell id="kvgdyRZ8XNl1OnzRA7-r-22" style="edgeStyle=orthogonalEdgeStyle;rounded=0;orthogonalLoop=1;jettySize=auto;html=1;entryX=1;entryY=0.5;entryDx=0;entryDy=0;" edge="1" parent="1" source="kvgdyRZ8XNl1OnzRA7-r-19" target="kvgdyRZ8XNl1OnzRA7-r-11">
          <mxGeometry relative="1" as="geometry" />
        </mxCell>
        <mxCell id="kvgdyRZ8XNl1OnzRA7-r-19" value="实时风控刷量识别（仅结果页）" style="whiteSpace=wrap;html=1;rounded=0;" vertex="1" parent="1">
          <mxGeometry x="690" y="280" width="120" height="60" as="geometry" />
        </mxCell>
      </root>
    </mxGraphModel>
  </diagram>
</mxfile>
